<svg xmlns="http://www.w3.org/2000/svg" xmlns:xlink="http://www.w3.org/1999/xlink" zoomAndPan="magnify" preserveAspectRatio="xMidYMid meet" version="1.0" viewBox="41.68 128.72 288.66 119.85"><defs><g/></defs><path fill="#333333" d="M 122.566406 137.972656 C 133.941406 144.191406 142.238281 153.261719 146.1875 162.597656 C 142.496094 161.648438 138.496094 163.269531 136.585938 166.769531 C 134.324219 170.90625 135.84375 176.097656 139.980469 178.359375 C 142.746094 179.871094 145.972656 179.683594 148.488281 178.164062 C 148.105469 180.652344 147.320312 183.046875 146.09375 185.289062 C 142.4375 191.992188 135.527344 196.15625 127.105469 197.613281 C 140.753906 199.824219 153.117188 195.835938 158.335938 186.277344 C 165.734375 172.730469 155.996094 153.148438 136.589844 142.535156 C 131.082031 139.523438 125.386719 137.558594 119.886719 136.597656 C 120.785156 137.035156 121.679688 137.484375 122.566406 137.972656 " fill-opacity="1" fill-rule="nonzero"/><path fill="#3870c2" d="M 157.832031 192.976562 C 155.433594 205.726562 149.378906 216.425781 141.726562 223.066406 C 141.484375 219.261719 138.710938 215.957031 134.792969 215.21875 C 130.164062 214.347656 125.699219 217.398438 124.828125 222.03125 C 124.246094 225.132812 125.421875 228.148438 127.644531 230.070312 C 125.160156 230.472656 122.640625 230.464844 120.132812 229.992188 C 112.632812 228.582031 106.539062 223.292969 102.550781 215.726562 C 104.667969 229.398438 112.277344 239.9375 122.976562 241.949219 C 138.136719 244.804688 153.738281 229.484375 157.828125 207.734375 C 158.988281 201.5625 159.09375 195.535156 158.308594 190.003906 C 158.171875 190.992188 158.019531 191.984375 157.832031 192.976562 " fill-opacity="1" fill-rule="nonzero"/><path fill="#ff1e57" d="M 116.449219 243.539062 C 103.59375 245.199219 91.558594 242.738281 82.878906 237.511719 C 86.421875 236.105469 88.707031 232.441406 88.199219 228.488281 C 87.59375 223.808594 83.316406 220.503906 78.644531 221.109375 C 75.519531 221.511719 73.015625 223.5625 71.875 226.273438 C 70.722656 224.03125 69.949219 221.632812 69.625 219.097656 C 68.648438 211.523438 71.792969 204.089844 77.75 197.957031 C 65.410156 204.195312 57.75 214.695312 59.140625 225.5 C 61.113281 240.808594 80.496094 250.925781 102.429688 248.09375 C 108.652344 247.292969 114.410156 245.53125 119.425781 243.074219 C 118.445312 243.25 117.457031 243.410156 116.449219 243.539062 " fill-opacity="1" fill-rule="nonzero"/><path fill="#ffac42" d="M 55.613281 219.78125 C 50.066406 208.058594 48.683594 195.839844 50.96875 185.964844 C 53.398438 188.902344 57.585938 189.945312 61.1875 188.238281 C 65.449219 186.21875 67.265625 181.128906 65.25 176.863281 C 63.898438 174.015625 61.179688 172.265625 58.25 172.015625 C 60.023438 170.230469 62.066406 168.753906 64.371094 167.660156 C 71.269531 164.390625 79.304688 165.085938 86.972656 168.859375 C 77.230469 159.042969 64.886719 154.996094 55.046875 159.660156 C 41.109375 166.269531 37.484375 187.839844 46.953125 207.839844 C 49.636719 213.515625 53.089844 218.453125 56.976562 222.46875 C 56.507812 221.585938 56.046875 220.695312 55.613281 219.78125 " fill-opacity="1" fill-rule="nonzero"/><path fill="#776391" d="M 59.394531 154.535156 C 68.820312 145.632812 80.003906 140.539062 90.097656 139.667969 C 88.054688 142.886719 88.355469 147.195312 91.089844 150.09375 C 94.328125 153.523438 99.730469 153.679688 103.15625 150.441406 C 105.449219 148.28125 106.269531 145.148438 105.601562 142.285156 C 107.847656 143.421875 109.878906 144.90625 111.632812 146.765625 C 116.871094 152.320312 118.695312 160.179688 117.476562 168.648438 C 123.796875 156.339844 123.824219 143.339844 116.351562 135.417969 C 105.765625 124.195312 84.144531 127.410156 68.0625 142.601562 C 63.5 146.910156 59.875 151.722656 57.261719 156.660156 C 57.953125 155.941406 58.65625 155.230469 59.394531 154.535156 " fill-opacity="1" fill-rule="nonzero"/><g fill="#000000" fill-opacity="1"><g transform="translate(180.665208, 206.556637)"><g><path d="M 17.097656 0.890625 C 24.136719 0.890625 29.191406 -4.660156 29.191406 -12.589844 C 29.191406 -20.519531 24.136719 -26.070312 17.148438 -26.070312 C 13.082031 -26.070312 9.863281 -24.136719 7.878906 -20.667969 L 7.832031 -20.667969 L 7.832031 -36.625 L 2.230469 -36.625 L 2.230469 0 L 6.988281 0 L 7.730469 -4.558594 L 7.78125 -4.558594 C 9.714844 -1.089844 12.984375 0.890625 17.097656 0.890625 Z M 15.613281 -3.964844 C 11.003906 -3.964844 7.632812 -7.730469 7.632812 -12.589844 C 7.632812 -17.496094 11.003906 -21.210938 15.613281 -21.210938 C 20.21875 -21.210938 23.589844 -17.496094 23.589844 -12.589844 C 23.589844 -7.632812 20.21875 -3.964844 15.613281 -3.964844 Z M 15.613281 -3.964844 "/></g></g></g><g fill="#000000" fill-opacity="1"><g transform="translate(211.143775, 206.556637)"><g><path d="M 10.855469 0.84375 C 15.066406 0.84375 18.1875 -0.992188 20.21875 -4.164062 L 20.269531 -4.164062 L 20.964844 0 L 25.820312 0 L 25.820312 -25.226562 L 20.21875 -25.226562 L 20.21875 -11.152344 C 20.21875 -6.839844 17.246094 -3.867188 13.082031 -3.867188 C 9.761719 -3.867188 7.632812 -6.144531 7.632812 -9.761719 L 7.632812 -25.226562 L 2.03125 -25.226562 L 2.03125 -8.425781 C 2.03125 -2.625 5.351562 0.84375 10.855469 0.84375 Z M 10.855469 0.84375 "/></g></g></g><g fill="#000000" fill-opacity="1"><g transform="translate(239.243527, 206.556637)"><g><path d="M 13.382812 0.890625 C 17.445312 0.890625 20.765625 -1.089844 22.699219 -4.558594 L 22.746094 -4.558594 L 23.492188 0 L 28.25 0 L 28.25 -36.625 L 22.648438 -36.625 L 22.648438 -20.667969 L 22.597656 -20.667969 C 20.617188 -24.136719 17.394531 -26.070312 13.332031 -26.070312 C 6.34375 -26.070312 1.289062 -20.519531 1.289062 -12.589844 C 1.289062 -4.660156 6.394531 0.890625 13.382812 0.890625 Z M 14.867188 -3.964844 C 10.308594 -3.964844 6.890625 -7.632812 6.890625 -12.589844 C 6.890625 -17.496094 10.257812 -21.210938 14.867188 -21.210938 C 19.476562 -21.210938 22.847656 -17.496094 22.847656 -12.589844 C 22.847656 -7.730469 19.476562 -3.964844 14.867188 -3.964844 Z M 14.867188 -3.964844 "/></g></g></g><g fill="#000000" fill-opacity="1"><g transform="translate(269.722094, 206.556637)"><g><path d="M 2.875 0 L 9.019531 0 L 9.019531 -14.519531 L 22.945312 -14.519531 L 22.945312 -19.425781 L 9.019531 -19.425781 L 9.019531 -29.734375 L 25.917969 -29.734375 L 25.917969 -35.136719 L 2.875 -35.136719 Z M 2.875 0 "/></g></g></g><g fill="#000000" fill-opacity="1"><g transform="translate(296.582875, 206.556637)"><g><path d="M 5.351562 -29.390625 C 7.433594 -29.390625 8.96875 -30.777344 8.96875 -32.90625 C 8.96875 -34.988281 7.433594 -36.378906 5.351562 -36.378906 C 3.171875 -36.378906 1.734375 -34.988281 1.734375 -32.90625 C 1.734375 -30.777344 3.171875 -29.390625 5.351562 -29.390625 Z M 2.527344 0 L 8.078125 0 L 8.078125 -25.226562 L 2.527344 -25.226562 Z M 2.527344 0 "/></g></g></g><g fill="#000000" fill-opacity="1"><g transform="translate(307.287541, 206.556637)"><g><path d="M 14.074219 0.992188 C 18.039062 0.992188 21.804688 -1.238281 23.046875 -4.90625 L 20.320312 -7.832031 C 19.476562 -5.105469 17.496094 -3.617188 15.066406 -3.617188 C 12.589844 -3.617188 10.855469 -5.5 10.855469 -8.277344 L 10.804688 -20.816406 L 21.507812 -20.816406 L 21.507812 -25.226562 L 10.804688 -25.226562 L 10.855469 -33.652344 L 5.253906 -32.414062 L 5.253906 -25.226562 L 0.0976562 -25.226562 L 0.0976562 -20.816406 L 5.253906 -20.816406 L 5.253906 -7.53125 C 5.253906 -2.378906 8.722656 0.992188 14.074219 0.992188 Z M 14.074219 0.992188 "/></g></g></g></svg>